<svg xmlns="http://www.w3.org/2000/svg" xmlns:xlink="http://www.w3.org/1999/xlink" viewBox="0,0,256,256" width="64px" height="64px" fill-rule="nonzero"><g fill="#ffffff" fill-rule="nonzero" stroke="none" stroke-width="1" stroke-linecap="butt" stroke-linejoin="miter" stroke-miterlimit="10" stroke-dasharray="" stroke-dashoffset="0" font-family="none" font-weight="none" font-size="none" text-anchor="none" style="mix-blend-mode: normal"><g transform="scale(8,8)"><path d="M5,5v22h22v-22zM7,7h18v18h-18zM11,10v5.50977v6.48047c5.93,0 7.11656,0.08 8.22656,-0.25c0.65,-0.2 2.42969,-0.83984 2.42969,-3.08984c0,-1 -0.29977,-2.69133 -2.25977,-3.11133v-0.0293h-0.36914c1,-0.45 1.62891,-1.29883 1.62891,-2.54883c0,-0.32 0.08984,-2.96094 -3.41016,-2.96094zM13,12h4c1.509,0 1.65625,0.85323 1.65625,1.49023c0,1.554 -1.62625,1.50977 -1.65625,1.50977h-4zM13,17h4.75977c1.861,0 1.89648,1.17647 1.89648,1.48047c0,1.56 -1.61164,1.51953 -1.80664,1.51953h-4.84961z"></path></g></g></svg>