<svg xmlns="http://www.w3.org/2000/svg" xmlns:xlink="http://www.w3.org/1999/xlink" viewBox="0,0,256,256" width="50px" height="50px" fill-rule="nonzero"><g fill="#ffffff" fill-rule="nonzero" stroke="none" stroke-width="1" stroke-linecap="butt" stroke-linejoin="miter" stroke-miterlimit="10" stroke-dasharray="" stroke-dashoffset="0" font-family="none" font-weight="none" font-size="none" text-anchor="none" style="mix-blend-mode: normal"><g transform="scale(5.12,5.12)"><path d="M5.5,7c-2.4614,0 -4.5,2.0386 -4.5,4.5v27c0,2.4614 2.0386,4.5 4.5,4.5h39c2.4614,0 4.5,-2.0386 4.5,-4.5v-27c0,-0.01335 -0.00379,-0.02574 -0.00391,-0.03906c0.00044,-0.02063 0.00391,-0.03969 0.00391,-0.06055h-0.00977c-0.05528,-2.41555 -2.06285,-4.40039 -4.49023,-4.40039zM8.17188,9h33.69336l-16.86523,11.7793zM4.83984,9.10742l20.16016,14.11328l20.18945,-14.10352c1.00258,0.30853 1.77522,1.24633 1.80469,2.32031c-0.01821,0.24431 -0.22832,0.64328 -0.53125,0.97461c-0.31679,0.34649 -0.62891,0.56445 -0.62891,0.56445l-0.00586,0.00391l-20.83008,14.79492l-20.82617,-14.69531l-0.00586,-0.00391c0,0 -0.31211,-0.21601 -0.62891,-0.5625c-0.31675,-0.34649 -0.53711,-0.77393 -0.53711,-1.01367c0,-1.11054 0.80309,-2.08797 1.83984,-2.39258zM47,14.59766v23.90234c0,1.3386 -1.1614,2.5 -2.5,2.5h-0.5v-24.26758l2.9668,-2.10742l0.00781,-0.00781c0.00034,-0.00023 0.02345,-0.01819 0.02539,-0.01953zM3,14.69922c0.00167,0.00116 0.02308,0.01734 0.02344,0.01758l0.00391,0.00391l0.00586,0.00391l2.9668,2.09375v24.18164h-0.5c-1.3386,0 -2.5,-1.1614 -2.5,-2.5zM42,18.15234v22.84766h-34v-22.77148l17.00195,11.99609z"></path></g></g></svg>