<svg id="svg" version="1.1" xmlns="http://www.w3.org/2000/svg" xmlns:xlink="http://www.w3.org/1999/xlink" width="400" height="400" viewBox="0, 0, 400,400"><g id="svgg"><path id="path0" d="M115.467 71.467 C 114.870 72.064,115.269 75.132,116.207 77.145 C 116.788 78.394,117.349 80.572,117.548 82.354 C 117.745 84.115,118.268 86.157,118.777 87.155 C 119.307 88.194,119.788 90.120,119.972 91.946 C 120.150 93.709,120.637 95.698,121.123 96.651 C 121.587 97.560,122.274 99.990,122.650 102.051 C 123.025 104.113,123.645 106.250,124.028 106.800 C 124.410 107.350,124.840 108.771,124.983 109.958 C 125.126 111.145,125.602 112.821,126.042 113.682 C 126.481 114.543,127.006 116.702,127.209 118.480 C 127.417 120.303,127.937 122.402,128.403 123.295 C 128.856 124.165,129.419 126.345,129.652 128.139 C 129.885 129.932,130.497 132.300,131.011 133.400 C 131.882 135.265,133.203 140.221,133.201 141.615 C 133.200 141.954,133.560 142.937,134.000 143.800 C 134.440 144.663,134.800 145.967,134.800 146.697 C 134.800 147.427,135.253 149.100,135.806 150.415 C 136.360 151.731,136.927 153.930,137.067 155.303 C 137.206 156.677,137.833 159.090,138.460 160.667 C 139.170 162.451,139.600 164.275,139.600 165.499 C 139.600 166.823,139.932 168.106,140.619 169.432 C 141.179 170.514,141.797 172.328,141.992 173.463 C 142.187 174.597,142.727 176.362,143.193 177.385 C 143.659 178.407,144.202 180.663,144.400 182.398 C 144.600 184.151,145.133 186.284,145.600 187.200 C 146.067 188.115,146.600 190.248,146.800 192.000 C 147.001 193.758,147.533 195.885,148.004 196.808 C 148.468 197.718,149.104 199.915,149.416 201.690 C 150.173 205.998,150.256 206.206,151.427 206.739 C 152.176 207.081,169.526 207.200,218.577 207.200 L 284.717 207.200 285.907 205.844 C 286.932 204.677,287.136 204.051,287.374 201.344 C 287.546 199.391,288.004 197.443,288.584 196.200 C 289.096 195.100,289.895 192.670,290.358 190.800 C 290.821 188.930,291.415 186.641,291.679 185.713 C 291.943 184.785,292.018 183.885,291.846 183.713 C 291.674 183.541,264.423 183.353,231.288 183.296 L 171.043 183.192 170.079 182.296 C 168.836 181.140,168.464 180.142,167.737 176.000 C 167.408 174.130,166.816 172.060,166.421 171.400 C 166.026 170.740,165.590 169.054,165.452 167.653 C 165.315 166.252,164.763 164.092,164.226 162.853 C 163.689 161.614,162.974 159.332,162.639 157.782 C 162.303 156.232,161.777 154.342,161.470 153.582 C 161.163 152.822,160.681 150.760,160.397 149.000 C 160.114 147.240,159.639 145.315,159.343 144.723 C 159.046 144.131,158.448 141.811,158.013 139.567 C 157.578 137.323,156.923 135.157,156.559 134.755 C 156.149 134.301,155.784 132.911,155.603 131.111 C 155.432 129.401,154.979 127.622,154.506 126.800 C 154.063 126.030,153.391 123.782,153.011 121.803 C 152.631 119.825,152.094 117.755,151.817 117.203 C 151.540 116.652,151.010 114.511,150.639 112.446 C 150.268 110.381,149.725 108.221,149.433 107.646 C 149.141 107.071,148.696 105.402,148.446 103.937 C 148.195 102.472,147.561 100.312,147.036 99.137 C 146.512 97.962,145.963 95.830,145.816 94.400 C 145.668 92.970,145.214 91.230,144.807 90.533 C 144.400 89.837,143.769 87.767,143.406 85.933 C 143.043 84.100,142.468 81.847,142.129 80.926 C 141.789 80.005,141.215 77.670,140.853 75.736 C 140.289 72.725,140.051 72.149,139.197 71.716 C 138.128 71.175,115.991 70.942,115.467 71.467 " stroke="none" fill="#bc7d5d" fill-rule="evenodd"></path><path id="path1" d="M115.234 225.359 C 114.632 226.084,115.230 229.903,116.336 232.400 C 116.775 233.390,117.253 235.100,117.399 236.200 C 117.545 237.300,118.189 239.759,118.832 241.664 C 119.474 243.569,120.000 245.644,120.000 246.275 C 120.000 246.906,120.280 247.822,120.623 248.311 L 121.245 249.200 197.594 249.200 C 264.472 249.200,274.016 249.127,274.535 248.608 C 274.861 248.282,275.251 247.247,275.403 246.308 C 275.555 245.369,276.017 243.822,276.430 242.872 C 276.842 241.922,277.449 239.723,277.779 237.985 C 278.109 236.248,278.667 234.145,279.019 233.313 C 280.158 230.626,280.792 226.049,280.118 225.375 C 279.264 224.521,115.943 224.505,115.234 225.359 " stroke="none" fill="#2c8c84" fill-rule="evenodd"></path><path id="path2" d="M0.000 200.000 L 0.000 400.000 200.000 400.000 L 400.000 400.000 400.000 200.000 L 400.000 0.000 200.000 0.000 L 0.000 0.000 0.000 200.000 M139.949 70.042 C 141.477 70.575,141.999 71.445,142.004 73.474 C 142.006 74.313,142.467 75.986,143.027 77.190 C 143.624 78.473,144.142 80.462,144.277 81.990 C 144.403 83.426,144.955 85.680,145.503 87.000 C 146.050 88.320,146.661 90.705,146.861 92.300 C 147.074 94.013,147.627 95.961,148.211 97.059 C 148.755 98.082,149.200 99.438,149.200 100.072 C 149.200 100.705,149.673 102.344,150.252 103.712 C 150.830 105.080,151.451 107.504,151.632 109.098 C 151.813 110.692,152.347 112.852,152.820 113.898 C 153.293 114.944,153.831 117.084,154.015 118.654 C 154.200 120.223,154.808 122.593,155.367 123.921 C 155.925 125.248,156.584 127.654,156.830 129.267 C 157.077 130.880,157.605 132.740,158.004 133.400 C 158.403 134.060,158.848 135.500,158.993 136.600 C 159.138 137.700,159.681 139.590,160.201 140.800 C 160.721 142.010,161.261 144.170,161.403 145.600 C 161.544 147.030,162.086 149.190,162.607 150.400 C 163.128 151.610,163.727 153.996,163.938 155.702 C 164.159 157.484,164.670 159.391,165.138 160.185 C 165.925 161.519,166.691 164.484,167.103 167.792 C 167.212 168.667,167.584 169.815,167.930 170.343 C 168.276 170.870,168.682 172.314,168.832 173.551 C 168.983 174.788,169.712 177.060,170.453 178.600 L 171.800 181.400 232.200 181.605 C 265.420 181.717,292.639 181.852,292.686 181.905 C 293.825 183.170,293.363 189.536,291.966 191.835 C 291.553 192.515,290.952 194.225,290.630 195.635 C 290.309 197.046,289.681 199.190,289.236 200.400 C 288.790 201.610,288.419 203.140,288.411 203.800 C 288.381 206.176,287.599 208.012,286.275 208.819 C 285.026 209.581,283.660 209.597,218.579 209.599 L 152.158 209.600 150.477 208.364 C 148.730 207.079,148.609 206.806,148.201 203.229 C 148.065 202.035,147.623 200.594,147.219 200.027 C 146.816 199.460,146.184 197.386,145.815 195.419 C 145.446 193.451,144.899 191.255,144.600 190.537 C 144.300 189.820,143.760 187.660,143.400 185.737 C 143.039 183.815,142.494 181.642,142.188 180.909 C 141.881 180.176,141.432 178.457,141.189 177.088 C 140.945 175.720,140.312 173.641,139.781 172.469 C 139.250 171.297,138.696 169.137,138.550 167.669 C 138.401 166.175,137.884 164.207,137.376 163.200 C 136.877 162.210,136.251 160.050,135.986 158.400 C 135.721 156.750,135.269 154.939,134.981 154.375 C 134.693 153.812,134.101 151.505,133.667 149.249 C 133.232 146.993,132.589 144.830,132.238 144.442 C 131.887 144.054,131.600 143.175,131.600 142.488 C 131.600 140.590,130.786 137.197,129.941 135.577 C 129.526 134.780,128.920 132.740,128.596 131.043 C 128.271 129.346,127.821 127.614,127.597 127.194 C 127.372 126.774,126.827 124.669,126.386 122.515 C 125.944 120.362,125.316 117.880,124.990 117.000 C 124.664 116.120,124.134 113.991,123.812 112.269 C 123.490 110.547,122.883 108.567,122.463 107.869 C 122.035 107.157,121.607 105.507,121.489 104.110 C 121.365 102.653,120.946 101.077,120.478 100.310 C 120.038 99.590,119.380 97.470,119.016 95.600 C 118.652 93.730,118.114 91.569,117.820 90.799 C 117.526 90.028,116.993 87.837,116.636 85.931 C 116.279 84.025,115.716 81.818,115.385 81.027 C 113.688 76.964,113.203 71.123,114.489 70.223 C 115.598 69.446,137.786 69.288,139.949 70.042 M282.069 224.262 C 283.003 225.107,282.997 226.441,282.052 228.316 C 281.640 229.132,281.172 230.880,281.012 232.200 C 280.852 233.520,280.307 235.590,279.800 236.800 C 279.293 238.010,278.751 240.080,278.594 241.400 C 278.438 242.720,277.790 245.000,277.155 246.467 C 276.520 247.934,276.000 249.270,276.000 249.436 C 276.000 251.307,280.747 251.200,197.547 251.200 L 120.418 251.200 119.848 250.300 C 119.535 249.805,119.149 248.770,118.990 248.000 C 118.832 247.230,118.368 245.940,117.960 245.133 C 117.552 244.326,117.024 242.346,116.788 240.733 C 116.552 239.120,115.939 236.810,115.425 235.600 C 114.911 234.390,114.375 232.410,114.233 231.200 C 114.091 229.990,113.669 228.127,113.294 227.059 C 112.616 225.127,112.617 225.116,113.551 224.359 C 114.918 223.252,280.847 223.156,282.069 224.262 M270.324 267.689 C 270.396 268.568,270.111 269.937,269.628 271.029 C 269.178 272.047,268.604 274.077,268.352 275.540 C 268.101 277.003,267.580 279.010,267.195 280.000 C 266.810 280.990,266.217 283.150,265.877 284.800 C 265.103 288.548,264.649 289.751,263.616 290.784 C 262.600 291.800,158.120 292.108,157.281 291.097 C 157.052 290.821,156.557 289.066,156.182 287.197 C 155.807 285.329,155.273 283.350,154.995 282.800 C 154.716 282.250,154.193 280.346,153.832 278.569 C 153.471 276.791,152.830 274.429,152.408 273.318 C 151.343 270.516,150.964 267.366,151.599 266.601 C 152.042 266.067,158.894 266.009,211.150 266.099 L 270.200 266.200 270.324 267.689 " stroke="none" fill="#fbfcfc" fill-rule="evenodd"></path><path id="path3" d="M113.551 224.359 C 112.617 225.116,112.616 225.127,113.294 227.059 C 113.669 228.127,114.091 229.990,114.233 231.200 C 114.375 232.410,114.911 234.390,115.425 235.600 C 115.939 236.810,116.552 239.120,116.788 240.733 C 117.024 242.346,117.552 244.326,117.960 245.133 C 118.368 245.940,118.832 247.230,118.990 248.000 C 119.149 248.770,119.535 249.805,119.848 250.300 L 120.418 251.200 197.547 251.200 C 280.747 251.200,276.000 251.307,276.000 249.436 C 276.000 249.270,276.520 247.934,277.155 246.467 C 277.790 245.000,278.438 242.720,278.594 241.400 C 278.751 240.080,279.293 238.010,279.800 236.800 C 280.307 235.590,280.852 233.520,281.012 232.200 C 281.172 230.880,281.640 229.132,282.052 228.316 C 282.997 226.441,283.003 225.107,282.069 224.262 C 280.847 223.156,114.918 223.252,113.551 224.359 M280.118 225.375 C 280.792 226.049,280.158 230.626,279.019 233.313 C 278.667 234.145,278.109 236.248,277.779 237.985 C 277.449 239.723,276.842 241.922,276.430 242.872 C 276.017 243.822,275.555 245.369,275.403 246.308 C 275.251 247.247,274.861 248.282,274.535 248.608 C 274.016 249.127,264.472 249.200,197.594 249.200 L 121.245 249.200 120.623 248.311 C 120.280 247.822,120.000 246.906,120.000 246.275 C 120.000 245.644,119.474 243.569,118.832 241.664 C 118.189 239.759,117.545 237.300,117.399 236.200 C 117.253 235.100,116.775 233.390,116.336 232.400 C 115.230 229.903,114.632 226.084,115.234 225.359 C 115.943 224.505,279.264 224.521,280.118 225.375 M151.599 266.601 C 150.964 267.366,151.343 270.516,152.408 273.318 C 152.830 274.429,153.471 276.791,153.832 278.569 C 154.193 280.346,154.716 282.250,154.995 282.800 C 155.273 283.350,155.807 285.329,156.182 287.197 C 156.557 289.066,157.052 290.821,157.281 291.097 C 158.120 292.108,262.600 291.800,263.616 290.784 C 264.649 289.751,265.103 288.548,265.877 284.800 C 266.217 283.150,266.810 280.990,267.195 280.000 C 267.580 279.010,268.101 277.003,268.352 275.540 C 268.604 274.077,269.178 272.047,269.628 271.029 C 270.111 269.937,270.396 268.568,270.324 267.689 L 270.200 266.200 211.150 266.099 C 158.894 266.009,152.042 266.067,151.599 266.601 " stroke="none" fill="#8cdcd4" fill-rule="evenodd"></path><path id="path4" d="M114.489 70.223 C 113.203 71.123,113.688 76.964,115.385 81.027 C 115.716 81.818,116.279 84.025,116.636 85.931 C 116.993 87.837,117.526 90.028,117.820 90.799 C 118.114 91.569,118.652 93.730,119.016 95.600 C 119.380 97.470,120.038 99.590,120.478 100.310 C 120.946 101.077,121.365 102.653,121.489 104.110 C 121.607 105.507,122.035 107.157,122.463 107.869 C 122.883 108.567,123.490 110.547,123.812 112.269 C 124.134 113.991,124.664 116.120,124.990 117.000 C 125.316 117.880,125.944 120.362,126.386 122.515 C 126.827 124.669,127.372 126.774,127.597 127.194 C 127.821 127.614,128.271 129.346,128.596 131.043 C 128.920 132.740,129.526 134.780,129.941 135.577 C 130.786 137.197,131.600 140.590,131.600 142.488 C 131.600 143.175,131.887 144.054,132.238 144.442 C 132.589 144.830,133.232 146.993,133.667 149.249 C 134.101 151.505,134.693 153.812,134.981 154.375 C 135.269 154.939,135.721 156.750,135.986 158.400 C 136.251 160.050,136.877 162.210,137.376 163.200 C 137.884 164.207,138.401 166.175,138.550 167.669 C 138.696 169.137,139.250 171.297,139.781 172.469 C 140.312 173.641,140.945 175.720,141.189 177.088 C 141.432 178.457,141.881 180.176,142.188 180.909 C 142.494 181.642,143.039 183.815,143.400 185.737 C 143.760 187.660,144.300 189.820,144.600 190.537 C 144.899 191.255,145.446 193.451,145.815 195.419 C 146.184 197.386,146.816 199.460,147.219 200.027 C 147.623 200.594,148.065 202.035,148.201 203.229 C 148.609 206.806,148.730 207.079,150.477 208.364 L 152.158 209.600 218.579 209.599 C 283.660 209.597,285.026 209.581,286.275 208.819 C 287.599 208.012,288.381 206.176,288.411 203.800 C 288.419 203.140,288.790 201.610,289.236 200.400 C 289.681 199.190,290.309 197.046,290.630 195.635 C 290.952 194.225,291.553 192.515,291.966 191.835 C 293.363 189.536,293.825 183.170,292.686 181.905 C 292.639 181.852,265.420 181.717,232.200 181.605 L 171.800 181.400 170.453 178.600 C 169.712 177.060,168.983 174.788,168.832 173.551 C 168.682 172.314,168.276 170.870,167.930 170.343 C 167.584 169.815,167.212 168.667,167.103 167.792 C 166.691 164.484,165.925 161.519,165.138 160.185 C 164.670 159.391,164.159 157.484,163.938 155.702 C 163.727 153.996,163.128 151.610,162.607 150.400 C 162.086 149.190,161.544 147.030,161.403 145.600 C 161.261 144.170,160.721 142.010,160.201 140.800 C 159.681 139.590,159.138 137.700,158.993 136.600 C 158.848 135.500,158.403 134.060,158.004 133.400 C 157.605 132.740,157.077 130.880,156.830 129.267 C 156.584 127.654,155.925 125.248,155.367 123.921 C 154.808 122.593,154.200 120.223,154.015 118.654 C 153.831 117.084,153.293 114.944,152.820 113.898 C 152.347 112.852,151.813 110.692,151.632 109.098 C 151.451 107.504,150.830 105.080,150.252 103.712 C 149.673 102.344,149.200 100.705,149.200 100.072 C 149.200 99.438,148.755 98.082,148.211 97.059 C 147.627 95.961,147.074 94.013,146.861 92.300 C 146.661 90.705,146.050 88.320,145.503 87.000 C 144.955 85.680,144.403 83.426,144.277 81.990 C 144.142 80.462,143.624 78.473,143.027 77.190 C 142.467 75.986,142.006 74.313,142.004 73.474 C 141.994 69.749,141.418 69.600,127.029 69.600 C 117.131 69.600,115.244 69.694,114.489 70.223 M139.197 71.716 C 140.051 72.149,140.289 72.725,140.853 75.736 C 141.215 77.670,141.789 80.005,142.129 80.926 C 142.468 81.847,143.043 84.100,143.406 85.933 C 143.769 87.767,144.400 89.837,144.807 90.533 C 145.214 91.230,145.668 92.970,145.816 94.400 C 145.963 95.830,146.512 97.962,147.036 99.137 C 147.561 100.312,148.195 102.472,148.446 103.937 C 148.696 105.402,149.141 107.071,149.433 107.646 C 149.725 108.221,150.268 110.381,150.639 112.446 C 151.010 114.511,151.540 116.652,151.817 117.203 C 152.094 117.755,152.631 119.825,153.011 121.803 C 153.391 123.782,154.063 126.030,154.506 126.800 C 154.979 127.622,155.432 129.401,155.603 131.111 C 155.784 132.911,156.149 134.301,156.559 134.755 C 156.923 135.157,157.578 137.323,158.013 139.567 C 158.448 141.811,159.046 144.131,159.343 144.723 C 159.639 145.315,160.114 147.240,160.397 149.000 C 160.681 150.760,161.163 152.822,161.470 153.582 C 161.777 154.342,162.303 156.232,162.639 157.782 C 162.974 159.332,163.689 161.614,164.226 162.853 C 164.763 164.092,165.315 166.252,165.452 167.653 C 165.590 169.054,166.026 170.740,166.421 171.400 C 166.816 172.060,167.408 174.130,167.737 176.000 C 168.464 180.142,168.836 181.140,170.079 182.296 L 171.043 183.192 231.288 183.296 C 264.423 183.353,291.674 183.541,291.846 183.713 C 292.018 183.885,291.943 184.785,291.679 185.713 C 291.415 186.641,290.821 188.930,290.358 190.800 C 289.895 192.670,289.096 195.100,288.584 196.200 C 288.004 197.443,287.546 199.391,287.374 201.344 C 287.136 204.051,286.932 204.677,285.907 205.844 L 284.717 207.200 218.577 207.200 C 169.526 207.200,152.176 207.081,151.427 206.739 C 150.256 206.206,150.173 205.998,149.416 201.690 C 149.104 199.915,148.468 197.718,148.004 196.808 C 147.533 195.885,147.001 193.758,146.800 192.000 C 146.600 190.248,146.067 188.115,145.600 187.200 C 145.133 186.284,144.600 184.151,144.400 182.398 C 144.202 180.663,143.659 178.407,143.193 177.385 C 142.727 176.362,142.187 174.597,141.992 173.463 C 141.797 172.328,141.179 170.514,140.619 169.432 C 139.932 168.106,139.600 166.823,139.600 165.499 C 139.600 164.275,139.170 162.451,138.460 160.667 C 137.833 159.090,137.206 156.677,137.067 155.303 C 136.927 153.930,136.360 151.731,135.806 150.415 C 135.253 149.100,134.800 147.427,134.800 146.697 C 134.800 145.967,134.440 144.663,134.000 143.800 C 133.560 142.937,133.200 141.954,133.201 141.615 C 133.203 140.221,131.882 135.265,131.011 133.400 C 130.497 132.300,129.885 129.932,129.652 128.139 C 129.419 126.345,128.856 124.165,128.403 123.295 C 127.937 122.402,127.417 120.303,127.209 118.480 C 127.006 116.702,126.481 114.543,126.042 113.682 C 125.602 112.821,125.126 111.145,124.983 109.958 C 124.840 108.771,124.410 107.350,124.028 106.800 C 123.645 106.250,123.025 104.113,122.650 102.051 C 122.274 99.990,121.587 97.560,121.123 96.651 C 120.637 95.698,120.150 93.709,119.972 91.946 C 119.788 90.120,119.307 88.194,118.777 87.155 C 118.268 86.157,117.745 84.115,117.548 82.354 C 117.349 80.572,116.788 78.394,116.207 77.145 C 115.269 75.132,114.870 72.064,115.467 71.467 C 115.991 70.942,138.128 71.175,139.197 71.716 " stroke="none" fill="#dcbcac" fill-rule="evenodd"></path></g></svg>