<svg id="svg" version="1.1" xmlns="http://www.w3.org/2000/svg" xmlns:xlink="http://www.w3.org/1999/xlink" width="400" height="400" viewBox="0, 0, 400,400"><g id="svgg"><path id="path0" d="M72.754 146.952 C 67.312 148.897,59.422 159.932,57.159 168.764 C 54.275 180.022,58.809 188.187,72.600 196.572 C 75.240 198.177,79.020 200.522,81.000 201.782 C 82.980 203.042,86.568 205.064,88.973 206.276 C 91.377 207.488,95.157 209.694,97.373 211.178 C 99.588 212.663,103.110 214.929,105.200 216.215 C 116.350 223.075,130.410 242.958,133.978 256.911 C 138.138 273.175,151.821 294.511,162.765 301.796 C 170.323 306.828,173.283 307.575,181.894 306.626 C 188.623 305.883,218.619 305.742,225.842 306.419 C 235.880 307.359,243.780 303.361,252.686 292.832 C 260.578 283.501,266.460 273.300,268.040 266.200 C 271.058 252.642,272.065 250.192,277.336 243.576 C 283.248 236.157,284.578 235.067,296.200 228.108 C 308.037 221.021,313.151 218.297,319.600 215.642 C 333.558 209.898,344.387 204.386,347.236 201.576 C 354.649 194.266,352.681 168.164,344.049 159.315 C 334.569 149.597,328.971 148.722,324.130 156.202 C 311.730 175.363,305.470 181.094,290.060 187.388 C 281.877 190.731,272.473 192.123,250.800 193.202 C 244.775 193.502,241.274 193.888,237.601 194.656 C 231.868 195.854,228.335 195.800,224.955 194.463 L 222.909 193.655 221.355 195.276 C 220.500 196.168,218.450 197.897,216.800 199.119 C 215.150 200.341,212.450 202.454,210.800 203.815 C 203.915 209.495,201.452 209.517,195.392 203.951 C 193.847 202.532,191.327 200.490,189.792 199.414 C 188.256 198.337,186.265 196.871,185.367 196.156 L 183.734 194.856 181.411 196.028 C 178.161 197.667,175.935 197.608,171.140 195.753 L 167.400 194.307 162.200 194.567 C 157.510 194.801,156.608 194.731,153.000 193.848 C 150.800 193.309,146.480 192.396,143.400 191.818 C 136.116 190.452,133.644 189.625,127.600 186.538 C 124.850 185.133,120.620 183.364,118.200 182.608 C 115.780 181.851,112.764 180.608,111.499 179.844 C 106.145 176.616,88.745 160.001,83.807 153.400 C 78.726 146.610,76.821 145.498,72.754 146.952 M194.752 209.150 C 195.768 209.538,197.826 210.699,199.325 211.728 C 203.003 214.254,204.698 214.295,208.587 211.950 C 223.742 202.809,237.597 211.516,236.673 229.600 C 236.132 240.188,232.704 247.453,222.134 260.414 C 219.897 263.156,216.207 267.719,213.934 270.554 C 203.703 283.309,201.522 282.335,181.137 255.897 C 174.122 246.798,169.296 232.396,170.783 225.000 C 173.260 212.689,184.527 205.239,194.752 209.150 " stroke="none" fill="#009464" fill-rule="evenodd"></path><path id="path1" d="M189.000 90.999 C 185.053 92.388,184.408 94.461,184.393 105.800 C 184.362 128.562,183.450 130.144,170.000 130.770 C 160.095 131.230,159.289 132.222,158.750 144.600 C 158.567 148.780,158.301 154.583,158.156 157.495 C 157.560 169.545,160.522 174.624,168.719 175.604 C 170.414 175.807,173.205 176.139,174.921 176.342 C 182.389 177.225,185.507 182.492,184.061 191.780 C 183.540 195.123,183.327 194.803,188.562 198.515 C 190.760 200.073,193.828 202.514,195.379 203.939 C 201.453 209.518,203.911 209.499,210.800 203.815 C 212.450 202.454,215.150 200.341,216.800 199.119 C 218.450 197.897,220.488 196.179,221.330 195.301 L 222.860 193.705 222.430 191.379 C 220.119 178.877,224.294 173.609,237.102 172.868 C 244.739 172.427,246.896 171.300,248.007 167.174 C 248.795 164.248,248.352 134.878,247.496 133.313 C 245.755 130.127,244.197 129.435,237.395 128.828 C 226.250 127.832,223.468 124.334,222.986 110.707 C 222.526 97.707,220.422 92.243,215.328 90.829 C 212.899 90.154,190.997 90.295,189.000 90.999 " stroke="none" fill="#ff0000" fill-rule="evenodd"></path><path id="path2" d="M0.000 200.000 L 0.000 400.000 200.000 400.000 L 400.000 400.000 400.000 200.000 L 400.000 0.000 200.000 0.000 L 0.000 0.000 0.000 200.000 M215.328 90.829 C 220.422 92.243,222.526 97.707,222.986 110.707 C 223.468 124.334,226.250 127.832,237.395 128.828 C 244.197 129.435,245.755 130.127,247.496 133.313 C 248.352 134.878,248.795 164.248,248.007 167.174 C 246.896 171.300,244.739 172.427,237.102 172.868 C 228.098 173.389,224.742 175.137,222.776 180.329 C 221.851 182.772,221.809 190.548,222.708 192.800 C 223.740 195.387,230.232 196.196,237.601 194.656 C 241.274 193.888,244.775 193.502,250.800 193.202 C 272.473 192.123,281.877 190.731,290.060 187.388 C 305.470 181.094,311.730 175.363,324.130 156.202 C 328.971 148.722,334.569 149.597,344.049 159.315 C 352.681 168.164,354.649 194.266,347.236 201.576 C 344.387 204.386,333.558 209.898,319.600 215.642 C 313.151 218.297,308.037 221.021,296.200 228.108 C 284.578 235.067,283.248 236.157,277.336 243.576 C 272.065 250.192,271.058 252.642,268.040 266.200 C 266.460 273.300,260.578 283.501,252.686 292.832 C 243.780 303.361,235.880 307.359,225.842 306.419 C 218.619 305.742,188.623 305.883,181.894 306.626 C 173.283 307.575,170.323 306.828,162.765 301.796 C 151.821 294.511,138.138 273.175,133.978 256.911 C 130.410 242.958,116.350 223.075,105.200 216.215 C 103.110 214.929,99.588 212.663,97.373 211.178 C 95.157 209.694,91.377 207.488,88.973 206.276 C 86.568 205.064,82.980 203.042,81.000 201.782 C 79.020 200.522,75.240 198.177,72.600 196.572 C 54.677 185.675,51.676 173.814,62.616 157.116 C 71.164 144.070,76.169 143.192,83.807 153.400 C 88.745 160.001,106.145 176.616,111.499 179.844 C 112.764 180.608,115.780 181.851,118.200 182.608 C 120.620 183.364,124.850 185.133,127.600 186.538 C 133.644 189.625,136.116 190.452,143.400 191.818 C 146.480 192.396,150.800 193.309,153.000 193.848 C 156.608 194.731,157.510 194.801,162.200 194.567 L 167.400 194.307 171.140 195.753 C 175.715 197.523,178.058 197.631,181.104 196.213 C 183.818 194.949,184.107 194.190,184.159 188.200 C 184.226 180.403,181.686 177.142,174.921 176.342 C 173.205 176.139,170.414 175.807,168.719 175.604 C 160.522 174.624,157.560 169.545,158.156 157.495 C 158.301 154.583,158.567 148.780,158.750 144.600 C 159.289 132.222,160.095 131.230,170.000 130.770 C 183.450 130.144,184.362 128.562,184.393 105.800 C 184.413 90.374,184.333 90.443,202.200 90.420 C 209.201 90.411,214.406 90.573,215.328 90.829 M185.327 208.395 C 176.880 210.182,169.730 220.726,170.540 230.200 C 171.181 237.684,175.879 249.077,181.137 255.897 C 201.522 282.335,203.703 283.309,213.934 270.554 C 216.207 267.719,219.897 263.156,222.134 260.414 C 229.833 250.973,234.081 243.775,235.603 237.590 C 241.120 215.176,226.400 201.206,208.587 211.950 C 204.698 214.295,203.003 214.254,199.325 211.728 C 194.835 208.644,189.808 207.448,185.327 208.395 " stroke="none" fill="#fefeff" fill-rule="evenodd"></path></g></svg>