<svg xmlns="http://www.w3.org/2000/svg" xmlns:xlink="http://www.w3.org/1999/xlink" viewBox="0,0,256,256" width="48px" height="48px" fill-rule="nonzero"><g fill="#ffffff" fill-rule="nonzero" stroke="none" stroke-width="1" stroke-linecap="butt" stroke-linejoin="miter" stroke-miterlimit="10" stroke-dasharray="" stroke-dashoffset="0" font-family="none" font-weight="none" font-size="none" text-anchor="none" style="mix-blend-mode: normal"><g transform="scale(5.33333,5.33333)"><path d="M44,17c-0.79,-1.82 -2.94,-2 -4.92,-2h-3.08v3c0,4.14 -3.36,7.5 -7.5,7.5h-9c-2.48,0 -4.5,2.02 -4.5,4.5v9.08c0,1.98 0.18,4.13 2,4.92c1.59,0.69 4.68,1 7,1c2.32,0 5.41,-0.31 7,-1c1.82,-0.79 2,-2.94 2,-4.92v-3.08h-7.5c-0.83,0 -1.5,-0.67 -1.5,-1.5c0,-0.83 0.67,-1.5 1.5,-1.5h13.58c1.98,0 4.13,-0.18 4.92,-2c0.69,-1.59 1,-4.68 1,-7c0,-2.32 -0.31,-5.41 -1,-7zM27.5,39c0.83,0 1.5,0.67 1.5,1.5c0,0.83 -0.67,1.5 -1.5,1.5c-0.83,0 -1.5,-0.67 -1.5,-1.5c0,-0.83 0.67,-1.5 1.5,-1.5zM28.5,22.5c2.48,0 4.5,-2.02 4.5,-4.5v-9.08c0,-1.98 -0.18,-4.13 -2,-4.92c-1.59,-0.69 -4.68,-1 -7,-1c-2.32,0 -5.41,0.31 -7,1c-1.82,0.79 -2,2.94 -2,4.92v3.08h7.5c0.83,0 1.5,0.67 1.5,1.5c0,0.83 -0.67,1.5 -1.5,1.5h-13.58c-1.98,0 -4.13,0.18 -4.92,2c-0.69,1.59 -1,4.68 -1,7c0,2.32 0.31,5.41 1,7c0.79,1.82 2.94,2 4.92,2h3.08v-3c0,-4.14 3.36,-7.5 7.5,-7.5zM19.5,9c-0.83,0 -1.5,-0.67 -1.5,-1.5c0,-0.83 0.67,-1.5 1.5,-1.5c0.83,0 1.5,0.67 1.5,1.5c0,0.83 -0.67,1.5 -1.5,1.5z"></path></g></g></svg>